# xmcd
#
# Track frame offsets: 
#        150
#        20223
#        28986
#        35599
#        40905
#        60727
#        77404
#        97305
#        124143
#        129152
#        139063
#        150748
#        158144
#        176346
#
# Disc length: 2509 seconds
#
# Revision: 1
# Processed by: cddbd v1.5.2PL0 Copyright (c) Steve Scherf et al.
# Submitted via: ExactAudioCopyFreeDBPlugin 1.0
#
DISCID=bb09cb0e
DTITLE=Lawless - Soundtrack - - Lawless - Soundtrack -
DYEAR=2012
DGENRE=Blues Country Bluegrass Rock
TTITLE0=Fire And Brimstone - Mark Lanegan -
TTITLE1=Burnin' Hell - Nick Cave 
TTITLE2=Sure 'Nuff 'N Yes I Do - Ralph Stanley -
TTITLE3=Fire In The Blood - Emmylou Harris -
TTITLE4=White Light - White Heat - Mark Lanegan -
TTITLE5=Cosmonaut - Emmylou Harris -
TTITLE6=Fire In The Blood and Snake Song - Ralph Stanley and Emmylou Har
TTITLE6=ris -
TTITLE7=So You'll Aim Toward The Sky - Emmylou Harris -
TTITLE8=Fire In The Blood - Emmylou Harris -
TTITLE9=Fire And Brimstone - Ralph Stanley -
TTITLE10=Sure 'Nuff 'N Yes I Do - Mark Lanegan -
TTITLE11=White Light - White Heat - Ralph Stanley -
TTITLE12=End Crawl - Nick Cave and Warren Ellis -
TTITLE13=Midnight Run - Willie Nelson -
EXTD=
EXTT0=
EXTT1=
EXTT2=
EXTT3=
EXTT4=
EXTT5=
EXTT6=
EXTT7=
EXTT8=
EXTT9=
EXTT10=
EXTT11=
EXTT12=
EXTT13=
PLAYORDER=
